<svg width="251" height="353" viewBox="0 0 251 353" fill="none" xmlns="http://www.w3.org/2000/svg">
<g filter="url(#filter0_d_3_264)">
<rect x="71" y="8" width="165" height="267" fill="#FFB74F"/>
</g>
<path d="M113.204 63.432C118.676 63.432 122.816 59.868 122.816 54.72C122.816 49.392 118.964 46.62 113.96 46.62C111.476 46.62 110 47.412 108.74 48.24C109.1 44.928 110.684 42.408 113.816 42.408C115.976 42.408 117.308 43.164 118.964 44.424L121.88 40.14C119.648 38.376 117.416 37.368 113.996 37.368C106.472 37.368 102.944 43.344 102.944 51.12C102.944 56.196 104.096 58.896 105.932 60.732C107.696 62.496 109.928 63.432 113.204 63.432ZM112.988 58.68C110.252 58.68 108.596 57.06 108.596 54.936C108.596 52.74 110.18 51.228 112.916 51.228C115.652 51.228 117.308 52.776 117.308 54.9C117.308 57.132 115.724 58.68 112.988 58.68Z" fill="white"/>
<path d="M154 50L140.938 63L135 57.0909" stroke="white" stroke-width="2" stroke-linecap="round" stroke-linejoin="round"/>
<path d="M106.936 204.168C109.946 204.168 112.074 201.858 112.074 199.1C112.074 196.314 109.974 194.032 106.964 194.032C103.954 194.032 101.826 196.342 101.826 199.1C101.826 201.886 103.926 204.168 106.936 204.168ZM106.964 202.586C105.018 202.586 103.632 201.004 103.632 199.1C103.632 197.168 104.99 195.614 106.936 195.614C108.882 195.614 110.268 197.196 110.268 199.1C110.268 201.032 108.91 202.586 106.964 202.586ZM113.959 204H115.653V198.064H118.859V204H120.553V196.608H113.959V204ZM122.625 204.084C124.263 204.084 125.271 203.426 125.271 198.064H127.581V204H129.275V196.608H123.689C123.689 202.236 123.101 202.656 122.247 202.656C122.135 202.656 121.869 202.628 121.757 202.6L121.631 203.986C121.883 204.028 122.359 204.084 122.625 204.084ZM137.606 204V199.618C137.606 197.644 136.542 196.496 134.358 196.496C133.154 196.496 132.356 196.748 131.544 197.112L132.006 198.47C132.678 198.19 133.294 198.008 134.12 198.008C135.296 198.008 135.94 198.568 135.94 199.59V199.73C135.366 199.548 134.792 199.422 133.896 199.422C132.174 199.422 130.9 200.206 130.9 201.844C130.9 203.356 132.132 204.154 133.532 204.154C134.652 204.154 135.422 203.692 135.926 203.09V204H137.606ZM135.968 201.326C135.968 202.25 135.128 202.88 134.008 202.88C133.21 202.88 132.58 202.488 132.58 201.788C132.58 201.046 133.21 200.612 134.274 200.612C134.932 200.612 135.534 200.738 135.968 200.906V201.326ZM141.203 204H142.911V198.064H145.291V196.608H138.823V198.064H141.203V204ZM152.836 204V199.618C152.836 197.644 151.772 196.496 149.588 196.496C148.384 196.496 147.586 196.748 146.774 197.112L147.236 198.47C147.908 198.19 148.524 198.008 149.35 198.008C150.526 198.008 151.17 198.568 151.17 199.59V199.73C150.596 199.548 150.022 199.422 149.126 199.422C147.404 199.422 146.13 200.206 146.13 201.844C146.13 203.356 147.362 204.154 148.762 204.154C149.882 204.154 150.652 203.692 151.156 203.09V204H152.836ZM151.198 201.326C151.198 202.25 150.358 202.88 149.238 202.88C148.44 202.88 147.81 202.488 147.81 201.788C147.81 201.046 148.44 200.612 149.504 200.612C150.162 200.612 150.764 200.738 151.198 200.906V201.326Z" fill="white"/>
<defs>
<filter id="filter0_d_3_264" x="0" y="0" width="251" height="353" filterUnits="userSpaceOnUse" color-interpolation-filters="sRGB">
<feFlood flood-opacity="0" result="BackgroundImageFix"/>
<feColorMatrix in="SourceAlpha" type="matrix" values="0 0 0 0 0 0 0 0 0 0 0 0 0 0 0 0 0 0 127 0" result="hardAlpha"/>
<feOffset dx="-28" dy="35"/>
<feGaussianBlur stdDeviation="21.5"/>
<feColorMatrix type="matrix" values="0 0 0 0 0.9625 0 0 0 0 0.619208 0 0 0 0 0.104271 0 0 0 0.39 0"/>
<feBlend mode="normal" in2="BackgroundImageFix" result="effect1_dropShadow_3_264"/>
<feBlend mode="normal" in="SourceGraphic" in2="effect1_dropShadow_3_264" result="shape"/>
</filter>
</defs>
</svg>
