<svg width="165" height="267" viewBox="0 0 165 267" fill="none" xmlns="http://www.w3.org/2000/svg">
<rect width="165" height="267" fill="white"/>
<path d="M40.98 55.432C46.776 55.432 50.556 52.048 50.556 46.72C50.556 40.96 46.632 38.584 41.736 38.584C40.332 38.584 39.432 38.764 38.424 39.016L38.712 34.66H49.44V29.8H33.96L33.24 42.22L36.444 44.344C37.632 43.84 39.072 43.408 40.656 43.408C43.284 43.408 45.12 44.668 45.12 46.828C45.12 49.132 43.5 50.392 40.908 50.392C38.676 50.392 36.804 49.384 34.896 47.656L31.548 51.652C33.996 53.992 36.948 55.432 40.98 55.432Z" fill="#F5EDE7"/>
<path d="M30.14 198.1H31.652L31.82 196H38.722V198.1H40.15L40.388 194.46H39.17V186.2H32.338V187.586C32.338 190.862 31.904 192.85 31.092 194.46H30.14V198.1ZM32.926 194.46C33.598 193.102 33.99 191.142 33.99 188.874V187.754H37.448V194.46H32.926ZM45.2421 196.168C47.5241 196.168 49.2041 194.418 49.2041 192.318C49.2041 190.176 47.5381 188.454 45.2701 188.454C43.0021 188.454 41.3221 190.204 41.3221 192.318C41.3221 194.446 42.9881 196.168 45.2421 196.168ZM45.2701 194.698C43.9541 194.698 43.0161 193.606 43.0161 192.318C43.0161 191.002 43.8841 189.938 45.2421 189.938C46.5721 189.938 47.5101 191.016 47.5101 192.318C47.5101 193.62 46.6421 194.698 45.2701 194.698ZM54.3452 196.168C55.7872 196.168 56.6412 195.594 57.3692 194.782L56.3472 193.774C55.8152 194.32 55.2272 194.698 54.4292 194.698C53.1272 194.698 52.2172 193.634 52.2172 192.318V192.29C52.2172 191.002 53.1132 189.938 54.3452 189.938C55.1992 189.938 55.7452 190.316 56.2632 190.862L57.3132 189.728C56.6272 188.972 55.7592 188.454 54.3592 188.454C52.1472 188.454 50.5232 190.218 50.5232 192.318V192.346C50.5232 194.446 52.1472 196.168 54.3452 196.168ZM60.4409 196H62.1489V190.064H64.5289V188.608H58.0609V190.064H60.4409V196ZM72.0746 196V191.618C72.0746 189.644 71.0106 188.496 68.8266 188.496C67.6226 188.496 66.8246 188.748 66.0126 189.112L66.4746 190.47C67.1466 190.19 67.7626 190.008 68.5886 190.008C69.7646 190.008 70.4086 190.568 70.4086 191.59V191.73C69.8346 191.548 69.2606 191.422 68.3646 191.422C66.6426 191.422 65.3686 192.206 65.3686 193.844C65.3686 195.356 66.6006 196.154 68.0006 196.154C69.1206 196.154 69.8906 195.692 70.3946 195.09V196H72.0746ZM70.4366 193.326C70.4366 194.25 69.5966 194.88 68.4766 194.88C67.6786 194.88 67.0486 194.488 67.0486 193.788C67.0486 193.046 67.6786 192.612 68.7426 192.612C69.4006 192.612 70.0026 192.738 70.4366 192.906V193.326ZM74.0894 196H77.9254C79.6054 196 80.6554 195.244 80.6554 193.998C80.6554 192.948 80.0254 192.402 79.1294 192.15C79.7594 191.87 80.3194 191.394 80.3194 190.456C80.3194 189.322 79.3534 188.608 77.8834 188.608H74.0894V196ZM75.7554 194.656V192.808H77.5894C78.4994 192.808 78.9334 193.172 78.9334 193.704C78.9334 194.278 78.4994 194.656 77.6734 194.656H75.7554ZM75.7554 191.66V189.91H77.5194C78.2754 189.91 78.5974 190.274 78.5974 190.75C78.5974 191.282 78.2054 191.66 77.4914 191.66H75.7554ZM82.3472 196H84.0272V194.222L85.2312 192.948L87.4712 196H89.4732L86.3652 191.716L89.2352 188.608H87.2472L84.0272 192.15V188.608H82.3472V196ZM96.848 196V191.618C96.848 189.644 95.784 188.496 93.6 188.496C92.396 188.496 91.598 188.748 90.786 189.112L91.248 190.47C91.92 190.19 92.536 190.008 93.362 190.008C94.538 190.008 95.182 190.568 95.182 191.59V191.73C94.608 191.548 94.034 191.422 93.138 191.422C91.416 191.422 90.142 192.206 90.142 193.844C90.142 195.356 91.374 196.154 92.774 196.154C93.894 196.154 94.664 195.692 95.168 195.09V196H96.848ZM95.21 193.326C95.21 194.25 94.37 194.88 93.25 194.88C92.452 194.88 91.822 194.488 91.822 193.788C91.822 193.046 92.452 192.612 93.516 192.612C94.174 192.612 94.776 192.738 95.21 192.906V193.326Z" fill="black"/>
<path d="M41.4583 128.167C42.659 128.166 43.8229 128.581 44.753 129.34C45.6832 130.099 46.3224 131.157 46.5625 132.333H61.25V111.5H38.3333C37.2283 111.5 36.1685 111.939 35.3871 112.72C34.6057 113.502 34.1667 114.561 34.1667 115.667V132.333H36.3542C36.5943 131.157 37.2335 130.099 38.1637 129.34C39.0938 128.581 40.2577 128.166 41.4583 128.167ZM41.4583 138.583C40.2577 138.583 39.0938 138.169 38.1637 137.41C37.2335 136.65 36.5943 135.593 36.3542 134.417H32.0833V115.667C32.0833 114.009 32.7418 112.419 33.9139 111.247C35.086 110.075 36.6757 109.417 38.3333 109.417H61.25C61.8025 109.417 62.3324 109.636 62.7231 110.027C63.1138 110.417 63.3333 110.947 63.3333 111.5V115.667H69.5833L75.8333 123.96V134.417H71.5625C71.3234 135.594 70.6847 136.652 69.7544 137.413C68.8242 138.173 67.6598 138.588 66.4583 138.588C65.2569 138.588 64.0925 138.173 63.1622 137.413C62.232 136.652 61.5933 135.594 61.3542 134.417H46.5625C46.3224 135.593 45.6832 136.65 44.753 137.41C43.8229 138.169 42.659 138.583 41.4583 138.583ZM41.4583 130.25C40.6295 130.25 39.8347 130.579 39.2486 131.165C38.6626 131.751 38.3333 132.546 38.3333 133.375C38.3333 134.204 38.6626 134.998 39.2486 135.585C39.8347 136.171 40.6295 136.5 41.4583 136.5C42.2871 136.5 43.082 136.171 43.6681 135.585C44.2541 134.998 44.5833 134.204 44.5833 133.375C44.5833 132.546 44.2541 131.751 43.6681 131.165C43.082 130.579 42.2871 130.25 41.4583 130.25ZM66.4583 128.167C67.659 128.166 68.8229 128.581 69.753 129.34C70.6832 130.099 71.3224 131.157 71.5625 132.333H73.75V124.658L73.2542 124H63.3333V129.208C64.2342 128.531 65.3312 128.165 66.4583 128.167ZM66.4583 130.25C65.6295 130.25 64.8347 130.579 64.2486 131.165C63.6626 131.751 63.3333 132.546 63.3333 133.375C63.3333 134.204 63.6626 134.998 64.2486 135.585C64.8347 136.171 65.6295 136.5 66.4583 136.5C67.2871 136.5 68.082 136.171 68.668 135.585C69.2541 134.998 69.5833 134.204 69.5833 133.375C69.5833 132.546 69.2541 131.751 68.668 131.165C68.082 130.579 67.2871 130.25 66.4583 130.25ZM63.3333 117.75V121.917H71.6854L68.5417 117.75H63.3333Z" fill="#AC9788"/>
</svg>
