<svg width="101" height="52" viewBox="0 0 101 52" fill="none" xmlns="http://www.w3.org/2000/svg">
<path d="M63.5833 25H71.9167V16.6667H74V25H82.3333V27.0833H74V35.4167H71.9167V27.0833H63.5833V25ZM72.9583 6.25C78.2074 6.25 83.2415 8.33519 86.9532 12.0468C90.6648 15.7585 92.75 20.7926 92.75 26.0417C92.75 31.2907 90.6648 36.3248 86.9532 40.0365C83.2415 43.7481 78.2074 45.8333 72.9583 45.8333C67.7093 45.8333 62.6752 43.7481 58.9635 40.0365C55.2519 36.3248 53.1667 31.2907 53.1667 26.0417C53.1667 20.7926 55.2519 15.7585 58.9635 12.0468C62.6752 8.33519 67.7093 6.25 72.9583 6.25ZM72.9583 8.33333C68.2618 8.33333 63.7576 10.199 60.4367 13.52C57.1157 16.8409 55.25 21.3451 55.25 26.0417C55.25 30.7382 57.1157 35.2424 60.4367 38.5634C63.7576 41.8843 68.2618 43.75 72.9583 43.75C77.6549 43.75 82.1591 41.8843 85.48 38.5634C88.801 35.2424 90.6667 30.7382 90.6667 26.0417C90.6667 21.3451 88.801 16.8409 85.48 13.52C82.1591 10.199 77.6549 8.33333 72.9583 8.33333Z" fill="#AC9788"/>
<path d="M14.5833 25.0002H33.3333V27.0835H14.5833V25.0002ZM12.5 8.3335H35.4167C37.0743 8.3335 38.664 8.99198 39.8361 10.1641C41.0082 11.3362 41.6667 12.9259 41.6667 14.5835V37.5002C41.6667 39.1578 41.0082 40.7475 39.8361 41.9196C38.664 43.0917 37.0743 43.7502 35.4167 43.7502H12.5C10.8424 43.7502 9.25269 43.0917 8.08058 41.9196C6.90848 40.7475 6.25 39.1578 6.25 37.5002V14.5835C6.25 12.9259 6.90848 11.3362 8.08058 10.1641C9.25269 8.99198 10.8424 8.3335 12.5 8.3335ZM12.5 10.4168C11.3949 10.4168 10.3351 10.8558 9.55372 11.6372C8.77232 12.4186 8.33333 13.4784 8.33333 14.5835V37.5002C8.33333 38.6052 8.77232 39.665 9.55372 40.4464C10.3351 41.2278 11.3949 41.6668 12.5 41.6668H35.4167C36.5217 41.6668 37.5815 41.2278 38.3629 40.4464C39.1443 39.665 39.5833 38.6052 39.5833 37.5002V14.5835C39.5833 13.4784 39.1443 12.4186 38.3629 11.6372C37.5815 10.8558 36.5217 10.4168 35.4167 10.4168H12.5Z" fill="#AC9788"/>
</svg>
