<svg width="50" height="50" viewBox="0 0 50 50" fill="none" xmlns="http://www.w3.org/2000/svg">
<path d="M11.4583 29.1665C12.659 29.1663 13.8229 29.5809 14.753 30.3401C15.6832 31.0994 16.3224 32.1568 16.5625 33.3332H31.25V12.4998H8.33334C7.22827 12.4998 6.16847 12.9388 5.38706 13.7202C4.60566 14.5016 4.16668 15.5614 4.16668 16.6665V33.3332H6.35418C6.59431 32.1568 7.23353 31.0994 8.16365 30.3401C9.09377 29.5809 10.2577 29.1663 11.4583 29.1665ZM11.4583 39.5832C10.2577 39.5834 9.09377 39.1688 8.16365 38.4095C7.23353 37.6503 6.59431 36.5929 6.35418 35.4165H2.08334V16.6665C2.08334 15.0089 2.74182 13.4192 3.91393 12.2471C5.08603 11.075 6.67574 10.4165 8.33334 10.4165H31.25C31.8025 10.4165 32.3324 10.636 32.7231 11.0267C33.1138 11.4174 33.3333 11.9473 33.3333 12.4998V16.6665H39.5833L45.8333 24.9603V35.4165H41.5625C41.3234 36.5939 40.6847 37.6524 39.7544 38.4127C38.8242 39.173 37.6598 39.5884 36.4583 39.5884C35.2569 39.5884 34.0925 39.173 33.1622 38.4127C32.232 37.6524 31.5933 36.5939 31.3542 35.4165H16.5625C16.3224 36.5929 15.6832 37.6503 14.753 38.4095C13.8229 39.1688 12.659 39.5834 11.4583 39.5832V39.5832ZM11.4583 31.2498C10.6295 31.2498 9.83469 31.5791 9.24863 32.1651C8.66258 32.7512 8.33334 33.546 8.33334 34.3748C8.33334 35.2036 8.66258 35.9985 9.24863 36.5845C9.83469 37.1706 10.6295 37.4998 11.4583 37.4998C12.2871 37.4998 13.082 37.1706 13.6681 36.5845C14.2541 35.9985 14.5833 35.2036 14.5833 34.3748C14.5833 33.546 14.2541 32.7512 13.6681 32.1651C13.082 31.5791 12.2871 31.2498 11.4583 31.2498ZM36.4583 29.1665C37.659 29.1663 38.8229 29.5809 39.753 30.3401C40.6832 31.0994 41.3224 32.1568 41.5625 33.3332H43.75V25.6582L43.2542 24.9998H33.3333V30.2082C34.2342 29.5307 35.3312 29.165 36.4583 29.1665V29.1665ZM36.4583 31.2498C35.6295 31.2498 34.8347 31.5791 34.2486 32.1651C33.6626 32.7512 33.3333 33.546 33.3333 34.3748C33.3333 35.2036 33.6626 35.9985 34.2486 36.5845C34.8347 37.1706 35.6295 37.4998 36.4583 37.4998C37.2871 37.4998 38.082 37.1706 38.668 36.5845C39.2541 35.9985 39.5833 35.2036 39.5833 34.3748C39.5833 33.546 39.2541 32.7512 38.668 32.1651C38.082 31.5791 37.2871 31.2498 36.4583 31.2498ZM33.3333 18.7498V22.9165H41.6854L38.5417 18.7498H33.3333Z" fill="#AC9788"/>
</svg>
