<svg width="26" height="36" viewBox="0 0 26 36" fill="none" xmlns="http://www.w3.org/2000/svg">
<path d="M2.58333 35.7502V25.3335H0.5V23.2502H2.58333V17.0002H0.5V14.9168H2.58333V0.333496H17.1667C19.3768 0.333496 21.4964 1.21147 23.0592 2.77427C24.622 4.33708 25.5 6.45669 25.5 8.66683C25.5 10.877 24.622 12.9966 23.0592 14.5594C21.4964 16.1222 19.3768 17.0002 17.1667 17.0002H4.66667V23.2502H17.1667V25.3335H4.66667V35.7502H2.58333ZM4.66667 14.9168H17.1667C18.8243 14.9168 20.414 14.2583 21.5861 13.0862C22.7582 11.9141 23.4167 10.3244 23.4167 8.66683C23.4167 7.00923 22.7582 5.41951 21.5861 4.24741C20.414 3.07531 18.8243 2.41683 17.1667 2.41683H4.66667V14.9168Z" fill="white"/>
</svg>
