<svg width="30" height="30" viewBox="0 0 30 30" fill="none" xmlns="http://www.w3.org/2000/svg">
<path fill-rule="evenodd" clip-rule="evenodd" d="M15 30C6.71575 30 0 23.2843 0 15C0 6.71575 6.71575 0 15 0C23.2843 0 30 6.71575 30 15C30 23.2843 23.2843 30 15 30ZM15.4944 23.3453C20.4122 23.3433 24.4119 19.3427 24.4138 14.4259C24.4148 12.0427 23.4879 9.80175 21.8039 8.11588C20.1199 6.42994 17.8804 5.50103 15.4943 5.5C10.578 5.5 6.57675 9.50106 6.57475 14.4189C6.57412 15.9909 6.98481 17.5253 7.76537 18.878L6.5 23.5L11.2283 22.2597C12.5311 22.9703 13.9979 23.3448 15.4908 23.3453H15.4944Z" fill="#AC9788"/>
</svg>
