<svg width="30" height="30" viewBox="0 0 30 30" fill="none" xmlns="http://www.w3.org/2000/svg">
<g clip-path="url(#clip0_16_131)">
<path fill-rule="evenodd" clip-rule="evenodd" d="M15 30C6.71575 30 0 23.2842 0 15C0 6.71575 6.71575 0 15 0C23.2842 0 30 6.71575 30 15C30 23.2842 23.2842 30 15 30ZM15.4944 23.3453C20.4122 23.3433 24.4119 19.3427 24.4138 14.4259C24.4148 12.0427 23.4879 9.80175 21.8039 8.11588C20.1199 6.42994 17.8804 5.50103 15.4943 5.5C10.578 5.5 6.57675 9.50106 6.57475 14.4189C6.57412 15.9909 6.98481 17.5253 7.76537 18.878L6.5 23.5L11.2283 22.2597C12.5311 22.9703 13.9979 23.3448 15.4908 23.3453H15.4944Z" fill="#AC9788"/>
<path fill-rule="evenodd" clip-rule="evenodd" d="M11.4474 20.6449L8.64156 21.381L9.3905 18.6453L9.21425 18.3648C8.47212 17.1844 8.08019 15.8203 8.08075 14.4194C8.08238 10.3319 11.4081 7.0065 15.4974 7.0065C17.4775 7.00719 19.3389 7.77931 20.7386 9.18063C22.1383 10.5819 22.9086 12.4445 22.9079 14.4254C22.9062 18.5133 19.5806 21.839 15.4944 21.839H15.4914C14.1611 21.8384 12.8564 21.4811 11.7181 20.8056L11.4474 20.6449ZM19.988 16.5469C19.9323 16.454 19.7837 16.3983 19.5609 16.2866C19.338 16.1751 18.2423 15.636 18.038 15.5616C17.8337 15.4872 17.6851 15.4501 17.5366 15.6731C17.388 15.8962 16.9609 16.3983 16.8309 16.5469C16.7009 16.6957 16.5708 16.7143 16.3481 16.6028C16.1252 16.4912 15.4071 16.2559 14.5558 15.4966C13.8933 14.9056 13.4459 14.1758 13.3159 13.9527C13.1859 13.7296 13.3021 13.6089 13.4137 13.4978C13.5139 13.3979 13.6366 13.2374 13.748 13.1074C13.8594 12.9773 13.8966 12.8843 13.9708 12.7356C14.0451 12.5868 14.008 12.4567 13.9523 12.3451C13.8966 12.2336 13.4508 11.1366 13.2651 10.6903C13.0842 10.2558 12.9005 10.3146 12.7637 10.3078C12.6338 10.3013 12.4851 10.2999 12.3366 10.2999C12.188 10.2999 11.9465 10.3556 11.7422 10.5788C11.5379 10.8019 10.9622 11.3411 10.9622 12.438C10.9622 13.535 11.7608 14.5948 11.8722 14.7435C11.9837 14.8923 13.4437 17.1433 15.6794 18.1087C16.2112 18.3383 16.6263 18.4754 16.95 18.5781C17.4839 18.7478 17.9698 18.7239 18.3537 18.6664C18.7819 18.6025 19.6722 18.1274 19.8581 17.6068C20.0437 17.0861 20.0437 16.6399 19.988 16.5469Z" fill="#AC9788"/>
</g>
<defs>
<clipPath id="clip0_16_131">
<rect width="30" height="30" fill="white"/>
</clipPath>
</defs>
</svg>
