<svg width="145" height="145" viewBox="0 0 165 165" fill="none" xmlns="http://www.w3.org/2000/svg">
<circle cx="82.5" cy="82.5" r="82.5" fill="white"/>
<path d="M83.0215 61C82.9068 60.9974 82.7925 61.0146 82.6836 61.0508L61.6836 68.0508C61.4844 68.1172 61.3112 68.2447 61.1885 68.415C61.0659 68.5854 60.9999 68.7901 61 69V104C61 104.265 61.1054 104.52 61.2929 104.707C61.4805 104.895 61.7348 105 62 105H67.832C67.94 105.018 68.0502 105.018 68.1582 105H97.832C97.94 105.018 98.0502 105.018 98.1582 105H98.1738H104C104.265 105 104.52 104.895 104.707 104.707C104.895 104.52 105 104.265 105 104V69C105 68.7901 104.934 68.5854 104.811 68.415C104.689 68.2447 104.516 68.1172 104.316 68.0508L83.3164 61.0508C83.2212 61.0192 83.1218 61.002 83.0215 61ZM83 63.0547L103 69.7207V103H99V75C99 74.7348 98.8946 74.4805 98.7071 74.2929C98.5195 74.1054 98.2652 74 98 74H68C67.7348 74 67.4805 74.1054 67.2929 74.2929C67.1054 74.4805 67 74.7348 67 75V103H63V69.7207L83 63.0547ZM69 76H97V103H94V94C94 93.7348 93.8946 93.4805 93.7071 93.2929C93.5195 93.1054 93.2652 93 93 93H89V84C89 83.7348 88.8946 83.4805 88.7071 83.2929C88.5195 83.1054 88.2652 83 88 83H78C77.7348 83 77.4805 83.1054 77.2929 83.2929C77.1054 83.4805 77 83.7348 77 84V93H73C72.7348 93 72.4805 93.1054 72.2929 93.2929C72.1054 93.4805 72 93.7348 72 94V103H69V76ZM79 85H87V93H83H79V85ZM74 95H78H82V103H74V95ZM84 95H88H92V103H84V95Z" fill="#AC9788"/>
</svg>
