<svg width="145" height="145" viewBox="0 0 165 165" fill="none" xmlns="http://www.w3.org/2000/svg">
<circle cx="82.5" cy="82.5" r="82.5" fill="white"/>
<path d="M62 63C60.8984 63 60 63.8984 60 65V101C60 102.102 60.8984 103 62 103H102C103.102 103 104 102.102 104 101V89.1992L102 91.1992V101H62V65H102V74.8008L104 76.8008V65C104 63.8984 103.102 63 102 63H62ZM77.5 69C75.6016 69 74 70.6016 74 72.5C74 74.3984 75.6016 76 77.5 76H86.5C88.3984 76 90 74.3984 90 72.5C90 70.6016 88.3984 69 86.5 69H77.5ZM77.5 71H86.5C87.3008 71 88 71.6992 88 72.5C88 73.3008 87.3008 74 86.5 74H77.5C76.6992 74 76 73.3008 76 72.5C76 71.6992 76.6992 71 77.5 71ZM99 75C98.75 75 98.5 75.1016 98.3008 75.3008C97.9023 75.6992 97.9023 76.3008 98.3008 76.6992L103.598 82H86C85.3984 82 85 82.3984 85 83C85 83.6016 85.3984 84 86 84H103.598L98.3008 89.3008C97.9023 89.6992 97.9023 90.3008 98.3008 90.6992C98.5 90.8984 98.6992 91 99 91C99.3008 91 99.5 90.8984 99.6992 90.6992L106.699 83.6992C107.098 83.3008 107.098 82.6992 106.699 82.3008L99.6992 75.3008C99.5 75.1016 99.25 75 99 75Z" fill="#AC9788"/>
</svg>
