<svg width="145" height="145" viewBox="0 0 165 165" fill="none" xmlns="http://www.w3.org/2000/svg">
<circle cx="82.5" cy="82.5" r="82.5" fill="#FFB74F"/>
<g clip-path="url(#clip0_2_304)">
<path d="M85.9655 60.3529C85.5651 60.3694 85.1892 60.6328 85.031 61.0547C80.8122 73.043 72.2343 82.8166 60.9139 88.6173C60.3866 88.8634 60.1761 89.4962 60.4573 90.0236C60.6683 90.3752 61.0195 90.586 61.4063 90.586C61.582 90.586 61.7228 90.5505 61.8986 90.4802C73.6759 84.4685 82.6058 74.2383 87.0003 61.7578C87.2112 61.2305 86.9297 60.5974 86.3672 60.4216C86.2354 60.3689 86.099 60.3475 85.9655 60.3529ZM94.8047 62.4609C92.2735 62.4609 90.2344 64.5 90.2344 67.0313C90.2344 69.5625 92.2735 71.6016 94.8047 71.6016C97.336 71.6016 99.375 69.5625 99.375 67.0313C99.375 64.5 97.336 62.4609 94.8047 62.4609ZM94.8047 64.5703C96.1758 64.5703 97.2656 65.6602 97.2656 67.0313C97.2656 68.4024 96.1758 69.4922 94.8047 69.4922C93.4336 69.4922 92.3438 68.4024 92.3438 67.0313C92.3438 65.6602 93.4336 64.5703 94.8047 64.5703ZM91.9922 73.0078C89.461 73.0078 87.4219 75.0469 87.4219 77.5781V88.125C87.4219 88.7227 87.8789 89.1797 88.4766 89.1797C89.0742 89.1797 89.5313 88.7227 89.5313 88.125V77.5781C89.5313 76.207 90.6211 75.1172 91.9922 75.1172H97.6172C98.9883 75.1172 100.078 76.207 100.078 77.5781V86.0156C100.078 86.6133 99.6211 87.0703 99.0235 87.0703C98.4258 87.0703 97.9688 87.5274 97.9688 88.125V102.539H95.8594V90.2344C95.8594 89.6367 95.4024 89.1797 94.8047 89.1797C94.207 89.1797 93.75 89.6367 93.75 90.2344V102.539H91.6406V93.75C91.6406 93.1524 91.1836 92.6953 90.586 92.6953C89.9883 92.6953 89.5313 93.1524 89.5313 93.75V102.539H61.4063C60.8086 102.539 60.3516 102.996 60.3516 103.594C60.3516 104.191 60.8086 104.648 61.4063 104.648H99.0235H103.594C104.191 104.648 104.648 104.191 104.648 103.594C104.648 102.996 104.191 102.539 103.594 102.539H100.078V89.0039C101.309 88.5469 102.188 87.3867 102.188 86.0156V77.5781C102.188 75.0469 100.148 73.0078 97.6172 73.0078H91.9922ZM76.1719 86.7188C75.5742 86.7188 75.1172 87.1758 75.1172 87.7735V100.078C75.1172 100.676 75.5742 101.133 76.1719 101.133C76.7695 101.133 77.2266 100.676 77.2266 100.078V88.8281H82.1485V100.078C82.1485 100.676 82.6055 101.133 83.2031 101.133C83.8008 101.133 84.2578 100.676 84.2578 100.078V87.7735C84.2578 87.1758 83.8008 86.7188 83.2031 86.7188H76.1719ZM63.8672 93.75C63.2695 93.75 62.8125 94.207 62.8125 94.8047V100.078C62.8125 100.676 63.2695 101.133 63.8672 101.133C64.4649 101.133 64.9219 100.676 64.9219 100.078V95.8594H69.8438V100.078C69.8438 100.676 70.3008 101.133 70.8985 101.133C71.4961 101.133 71.9531 100.676 71.9531 100.078V94.8047C71.9531 94.207 71.4961 93.75 70.8985 93.75H63.8672Z" fill="white"/>
</g>
<defs>
<clipPath id="clip0_2_304">
<rect width="45" height="45" fill="white" transform="translate(60 60)"/>
</clipPath>
</defs>
</svg>
