<svg width="145" height="145" viewBox="0 0 165 165" fill="none" xmlns="http://www.w3.org/2000/svg">
<circle cx="82.5" cy="82.5" r="82.5" fill="white"/>
<g clip-path="url(#clip0_2_305)">
<path d="M83.5 56C80.1953 56 77.1953 56.6367 74.9375 57.7188C72.6797 58.8008 71 60.418 71 62.5C71 62.5312 71 62.5625 71 62.5938C70.9922 62.668 70.9922 62.7383 71 62.8125V97.4062C71 100.141 72.7852 102.449 75.2812 103.969C75.5586 104.137 75.9023 104.16 76.2031 104.031C76.5 103.898 76.7148 103.633 76.7812 103.312L77.6875 98.9375L78.7187 104.875C78.793 105.262 79.0859 105.566 79.4688 105.656C80.7812 105.984 82.1484 106.094 83.5 106.094C86.8789 106.094 89.9453 105.207 92.2188 103.688C94.4922 102.168 96 99.9531 96 97.4062V88C96 86.4609 96.6172 84.9141 97.7188 83.8125L101.438 80.7812C101.449 80.7695 101.457 80.7617 101.469 80.75C101.469 80.75 102.281 80.0039 102.656 78.75C103.031 77.4961 102.961 75.6641 101.625 73.6562C101.449 73.375 101.145 73.1992 100.812 73.1875H98C97.9805 73.1875 97.957 73.1875 97.9375 73.1875C96.9141 73.25 96 72.4219 96 71.4062V62.8125C96.0039 62.7695 96.0039 62.7305 96 62.6875C96.0039 62.625 96 62.5664 96 62.5C96 60.418 94.3203 58.8008 92.0625 57.7188C89.8047 56.6367 86.8047 56 83.5 56ZM83.5 58C86.5469 58 89.2852 58.5898 91.1875 59.5C93.0898 60.4102 94 61.5469 94 62.5C94 63.4531 93.0898 64.5898 91.1875 65.5C90.4727 65.8398 89.6406 66.1367 88.7188 66.375C88.625 66.3711 88.5273 66.3828 88.4375 66.4062C82.3398 67.375 78.8437 65.9297 77.7187 64.5312C77.1562 63.832 77.1133 63.2539 77.375 62.6562C77.6367 62.0586 78.332 61.3828 79.6875 60.9688C80.2305 60.8555 80.582 60.3242 80.4688 59.7812C80.3555 59.2383 79.8242 58.8867 79.2812 59C79.2188 59.0039 79.1562 59.0156 79.0938 59.0312C77.3477 59.5664 76.0937 60.5625 75.5312 61.8438C75 63.0547 75.2109 64.4609 76.0312 65.5938C75.9609 65.5625 75.8828 65.5352 75.8125 65.5C73.9102 64.5898 73 63.4531 73 62.5C73 61.5469 73.9102 60.4102 75.8125 59.5C77.7148 58.5898 80.4531 58 83.5 58ZM86 60C84.7617 60 83.625 60.2344 82.7188 60.6875C81.8125 61.1406 81 61.9062 81 63C81 64.0938 81.8125 64.8594 82.7188 65.3125C83.625 65.7656 84.7617 66 86 66C87.2383 66 88.375 65.7656 89.2812 65.3125C90.1875 64.8594 91 64.0938 91 63C91 61.9062 90.1875 61.1406 89.2812 60.6875C88.375 60.2344 87.2383 60 86 60ZM86 62C86.9688 62 87.832 62.1992 88.375 62.4688C88.918 62.7383 89 62.9883 89 63C89 63.0117 88.918 63.2617 88.375 63.5312C87.832 63.8008 86.9688 64 86 64C85.0312 64 84.168 63.8008 83.625 63.5312C83.082 63.2617 83 63.0117 83 63C83 62.9883 83.082 62.7383 83.625 62.4688C84.168 62.1992 85.0312 62 86 62ZM73 66.0938C73.5664 66.543 74.2187 66.9375 74.9375 67.2812C77.1953 68.3633 80.1953 69 83.5 69C86.8047 69 89.8047 68.3633 92.0625 67.2812C92.7812 66.9375 93.4336 66.543 94 66.0938V71.4062C94 73.5664 95.8516 75.2852 98 75.1875C98.0195 75.1875 98.043 75.1875 98.0625 75.1875H100.156C100.898 76.5117 100.949 77.4922 100.75 78.1562C100.535 78.875 100.18 79.1953 100.156 79.2188L100.125 79.25L96.375 82.3125C96.3398 82.3398 96.3086 82.3711 96.2812 82.4062C94.7812 83.9062 94 85.9414 94 88V97.4062C94 99.1602 92.9727 100.777 91.0938 102.031C89.2148 103.285 86.5234 104.094 83.5 104.094C82.4688 104.094 81.4961 103.957 80.5625 103.781L78.7812 93.4375C78.7031 92.9609 78.293 92.6055 77.8086 92.5977C77.3242 92.5898 76.9062 92.9297 76.8125 93.4062L75.1562 101.219C73.8789 100.098 73 98.832 73 97.4062V66.0938ZM77.8437 75C77.3008 75.082 76.9258 75.582 77 76.125C77.125 77.0938 76.957 77.8359 76.8125 78.6562C76.668 79.4766 76.5625 80.5117 77.125 81.5C77.4023 81.9844 78.0156 82.1523 78.5 81.875C78.9844 81.5977 79.1523 80.9844 78.875 80.5C78.6406 80.0859 78.6797 79.7539 78.8125 79C78.9453 78.2461 79.1719 77.2031 79 75.875C78.9688 75.6016 78.8281 75.3555 78.6094 75.1875C78.3906 75.0234 78.1133 74.957 77.8437 75ZM87.875 84.9688C87.832 84.9766 87.7891 84.9883 87.75 85C87.2461 85.125 86.9219 85.6133 87 86.125C87.1797 87.6055 86.9453 88.6914 86.75 89.8125C86.5547 90.9336 86.4258 92.1953 87.125 93.4688C87.2656 93.8281 87.5977 94.0781 87.9844 94.1055C88.3711 94.1328 88.7383 93.9375 88.9297 93.6016C89.1172 93.2617 89.0977 92.8477 88.875 92.5312C88.4766 91.8047 88.5391 91.207 88.7188 90.1562C88.8984 89.1055 89.2188 87.6953 89 85.875C88.9766 85.6016 88.8438 85.3516 88.6328 85.1836C88.418 85.0117 88.1445 84.9336 87.875 84.9688Z" fill="#AC9788"/>
</g>
<defs>
<clipPath id="clip0_2_305">
<rect width="50" height="50" fill="white" transform="translate(62 56)"/>
</clipPath>
</defs>
</svg>
