<svg width="145" height="145" viewBox="0 0 165 165" fill="none" xmlns="http://www.w3.org/2000/svg">
<circle cx="82.5" cy="82.5" r="82.5" fill="#FFB74F"/>
<path d="M83 60C70.3093 60 60 70.3093 60 83C60 95.6907 70.3093 106 83 106C95.6907 106 106 95.6907 106 83C106 70.3093 95.6907 60 83 60ZM83 62C86.9565 62 90.6417 63.1105 93.7988 65.0078L87.9297 74.3105C88.9297 74.8105 88.9297 74.8105 89.5 75.5L95.4551 66.1133C100.381 69.7509 103.67 75.4736 103.975 82H91C90.5 83 90.5 83 89.8906 84H103.975C103.612 91.754 99.0493 98.383 92.5137 101.709L87.5 91.5C86.96 91.92 86.3795 92.2615 85.7695 92.5215L90.6992 102.541C88.3152 103.48 85.7198 104 83 104C71.3902 104 62 94.6098 62 83C62 71.3902 71.3902 62 83 62Z" fill="white"/>
<path d="M79.3436 92V88.736H77.2556V87.176H79.3436V85.04H77.2556V83.216H79.3436V74.864H83.8556C85.9516 74.864 87.5036 75.288 88.5116 76.136C89.5356 76.984 90.0476 78.216 90.0476 79.832C90.0476 81.464 89.4956 82.744 88.3916 83.672C87.2876 84.584 85.6636 85.04 83.5196 85.04H81.5036V87.176H85.4636V88.736H81.5036V92H79.3436ZM83.2076 83.216C84.6636 83.216 85.7916 82.976 86.5916 82.496C87.4076 82.016 87.8156 81.152 87.8156 79.904C87.8156 78.816 87.4796 78.008 86.8076 77.48C86.1356 76.952 85.0876 76.688 83.6636 76.688H81.5036V83.216H83.2076Z" fill="white"/>
</svg>
