<svg width="145" height="145" viewBox="0 0 165 165" fill="none" xmlns="http://www.w3.org/2000/svg">
<circle cx="82.5" cy="82.5" r="82.5" fill="#FFB74F"/>
<path d="M84.8125 54.875C81.6934 54.875 78.8345 56.3846 77.0598 58.9656C75.6451 59.2093 74.255 59.5847 72.9125 60.0825L72.0867 57.1968C72.007 56.9193 71.8036 56.694 71.5355 56.5852C71.2683 56.4774 70.9646 56.4985 70.7152 56.642C68.0152 58.201 66.2944 60.9383 66.0479 64.0724C64.9472 64.9921 63.9315 66.0095 63.0193 67.1083L60.855 65.0154C60.6478 64.8148 60.3581 64.7214 60.0731 64.7627C59.7872 64.8021 59.5363 64.9711 59.392 65.2205C57.8338 67.9186 57.7105 71.1489 59.0605 73.9839C58.5674 75.3273 58.2001 76.7174 57.9601 78.1331L55.0396 77.4025C54.7621 77.334 54.4626 77.3965 54.2357 77.5746C54.0079 77.7527 53.875 78.0238 53.875 78.3125C53.875 81.4287 55.3818 84.2877 57.9656 86.0652C58.2093 87.4799 58.5847 88.87 59.0825 90.2125L56.1968 91.0383C55.9193 91.119 55.694 91.3214 55.5852 91.5895C55.4774 91.8576 55.4976 92.1595 55.642 92.4098C57.201 95.1098 59.9383 96.8306 63.0724 97.0771C63.9921 98.1778 65.0095 99.1935 66.1083 100.106L64.0154 102.27C63.8148 102.477 63.7224 102.766 63.7627 103.052C63.8021 103.338 63.9711 103.589 64.2205 103.733C66.9186 105.291 70.1498 105.416 72.9839 104.064C74.3273 104.558 75.7174 104.925 77.1331 105.165L76.4025 108.085C76.3322 108.365 76.3974 108.662 76.5746 108.889C76.7518 109.116 77.0238 109.25 77.3125 109.25C80.4316 109.25 83.2905 107.74 85.0652 105.159C86.4799 104.916 87.87 104.54 89.2125 104.042L90.0383 106.928C90.118 107.206 90.3205 107.431 90.5876 107.54C90.8558 107.649 91.1586 107.627 91.408 107.483C94.108 105.924 95.8306 103.187 96.0771 100.053C97.1778 99.1329 98.1917 98.1155 99.1039 97.0167L101.268 99.1096C101.475 99.3093 101.761 99.4007 102.05 99.3623C102.336 99.3229 102.587 99.1539 102.731 98.9045C104.289 96.2064 104.413 92.9761 103.063 90.1411C103.556 88.7977 103.924 87.4076 104.163 85.9919L107.084 86.7225C107.364 86.7919 107.661 86.7294 107.887 86.5522C108.116 86.3741 108.25 86.1012 108.25 85.8125C108.25 82.6934 106.74 79.8336 104.159 78.0598C103.916 76.6451 103.54 75.255 103.042 73.9125L105.928 73.0867C106.206 73.007 106.431 72.8045 106.54 72.5374C106.648 72.2692 106.627 71.9674 106.483 71.717C104.924 69.017 102.187 67.2944 99.0526 67.0479C98.1329 65.9472 97.1155 64.9333 96.0167 64.0211L98.1096 61.8568C98.3102 61.6496 98.4026 61.3609 98.3623 61.075C98.3229 60.789 98.1539 60.5382 97.9045 60.3938C95.2074 58.8366 91.9771 58.7124 89.1411 60.0624C87.7977 59.5693 86.4076 59.2001 84.9919 58.9601L85.7225 56.0396C85.7928 55.7602 85.7276 55.4644 85.5504 55.2375C85.3732 55.0107 85.1012 54.875 84.8125 54.875ZM83.5875 56.8489L82.921 59.5112C82.8563 59.7719 82.9065 60.0499 83.0583 60.2711C83.2102 60.4924 83.4503 60.6375 83.7175 60.6703C85.4791 60.8859 87.2092 61.32 88.8555 61.9594C89.1105 62.0587 89.4385 62.0173 89.6776 61.8898C91.6154 60.8595 93.8493 60.7303 95.8556 61.4906L93.9495 63.4608C93.7629 63.6539 93.6688 63.9169 93.6895 64.1841C93.7101 64.4513 93.8456 64.6976 94.0593 64.8597C95.4665 65.9247 96.745 67.1656 97.8588 68.5493C98.0294 68.7612 98.3376 68.8915 98.6095 68.9009C100.802 68.9778 102.805 69.9825 104.161 71.6438L101.532 72.3945C101.274 72.4686 101.059 72.6507 100.944 72.8926C100.829 73.1345 100.822 73.4151 100.926 73.6616C101.616 75.2901 102.102 77.0052 102.372 78.7593C102.414 79.0293 102.609 79.2924 102.841 79.4368C104.701 80.5993 105.931 82.4697 106.276 84.5875L103.614 83.921C103.354 83.8573 103.078 83.9065 102.856 84.0583C102.634 84.2102 102.489 84.4503 102.457 84.7175C102.241 86.4791 101.807 88.2092 101.167 89.8555C101.069 90.1095 101.11 90.4376 101.237 90.6776C102.266 92.6154 102.396 94.8503 101.634 96.8556L99.666 94.9495C99.4729 94.7629 99.2119 94.667 98.9409 94.6895C98.6737 94.7101 98.4293 94.8456 98.2671 95.0593C97.2021 96.4665 95.9594 97.745 94.5757 98.8588C94.3638 99.0294 94.2353 99.3376 94.226 99.6095C94.1491 101.802 93.1443 103.805 91.483 105.161L90.7305 102.532C90.6564 102.274 90.4761 102.059 90.2343 101.944C89.9914 101.829 89.7118 101.822 89.4652 101.926C87.8368 102.616 86.1198 103.102 84.3657 103.372C84.0957 103.414 83.8344 103.609 83.6901 103.841C82.5276 105.701 80.6571 106.931 78.5393 107.276L79.204 104.614C79.2687 104.353 79.2185 104.077 79.0667 103.856C78.9148 103.634 78.6765 103.489 78.4093 103.457C76.6477 103.241 74.9176 102.807 73.2714 102.167C73.1739 102.129 73.0652 102.113 72.9564 102.113C72.7792 102.113 72.5983 102.158 72.4492 102.237C70.5114 103.267 68.2756 103.395 66.2712 102.634L68.1755 100.666C68.3621 100.473 68.4562 100.208 68.4355 99.9409C68.4149 99.6737 68.2813 99.4293 68.0675 99.2671C66.6603 98.2021 65.3818 96.9594 64.2681 95.5757C64.0974 95.3638 63.7874 95.2353 63.5155 95.226C61.3227 95.1491 59.3221 94.1443 57.9656 92.483L60.595 91.7305C60.8528 91.6564 61.0674 91.4761 61.1827 91.2343C61.2981 90.9924 61.3033 90.7118 61.1992 90.4652C60.5092 88.8358 60.0227 87.1198 59.7527 85.3657C59.7114 85.0957 59.5164 84.8354 59.2839 84.6901C57.4239 83.5276 56.1939 81.6571 55.8489 79.5393L58.5112 80.204C58.7719 80.2696 59.0499 80.2195 59.2711 80.0667C59.4924 79.9148 59.6375 79.6765 59.6703 79.4093C59.8859 77.6477 60.32 75.9176 60.9594 74.2714C61.0578 74.0173 61.0173 73.6892 60.8898 73.4492C59.8604 71.5114 59.7294 69.2766 60.4906 67.2712L62.4608 69.1755C62.6539 69.3621 62.9103 69.4534 63.1841 69.4355C63.4513 69.4149 63.6976 69.2813 63.8597 69.0675C64.9247 67.6603 66.1656 66.3818 67.5493 65.2681C67.7612 65.0974 67.8915 64.7874 67.9009 64.5155C67.9778 62.3227 68.9825 60.3221 70.6438 58.9656L71.3945 61.595C71.4686 61.8528 71.6507 62.0674 71.8926 62.1827C72.1354 62.299 72.4141 62.3033 72.6616 62.1992C74.2901 61.5092 76.0052 61.0227 77.7593 60.7527C78.0293 60.7114 78.2924 60.5164 78.4368 60.2839C79.5993 58.4239 81.4697 57.1939 83.5875 56.8489ZM86.0833 68.0659C85.3526 68.0711 84.6613 68.5055 84.3639 69.2213C83.9673 70.1757 84.4212 71.2765 85.3765 71.6731C85.6108 71.7706 85.8533 71.8141 86.0924 71.8141C86.8283 71.8141 87.5274 71.3805 87.8264 70.6605C88.0186 70.1974 88.0204 69.6872 87.8282 69.225C87.637 68.7619 87.276 68.4 86.8138 68.2087C86.575 68.1094 86.3268 68.0642 86.0833 68.0659ZM70.2574 70.7045C70.0177 70.7085 69.7783 70.8035 69.5983 70.9901C69.2383 71.3623 69.2499 71.9558 69.6221 72.3158L70.9697 73.6195C71.1516 73.7958 71.3863 73.8832 71.6216 73.8832C71.8672 73.8832 72.1117 73.7878 72.2954 73.5975C72.6554 73.2253 72.6438 72.6319 72.2716 72.2719L70.924 70.9681C70.7374 70.7881 70.4972 70.7005 70.2574 70.7045ZM81.0625 73.625C76.4106 73.625 72.625 77.4106 72.625 82.0625C72.625 86.7144 76.4106 90.5 81.0625 90.5C85.7144 90.5 89.5 86.7144 89.5 82.0625C89.5 77.4106 85.7144 73.625 81.0625 73.625ZM81.0625 75.5C84.6812 75.5 87.625 78.4438 87.625 82.0625C87.625 85.6812 84.6812 88.625 81.0625 88.625C77.4438 88.625 74.5 85.6812 74.5 82.0625C74.5 78.4438 77.4438 75.5 81.0625 75.5ZM67.141 75.5073C66.7757 75.5138 66.4314 75.734 66.2859 76.0933C66.0918 76.5733 66.3241 77.1187 66.8041 77.3127L68.5417 78.0159C68.6571 78.0618 68.7771 78.0836 68.8933 78.0836C69.2646 78.0836 69.6159 77.8624 69.7631 77.4977C69.9571 77.0177 69.7249 76.4704 69.2449 76.2764L67.5054 75.5732C67.3854 75.5252 67.2628 75.5052 67.141 75.5073ZM66.0625 81.017C65.545 81.017 65.125 81.437 65.125 81.9545C65.125 81.9732 65.1341 81.9888 65.136 82.0076C65.1341 82.0273 65.125 82.0438 65.125 82.0625C65.125 82.58 65.545 83 66.0625 83H67.9375C68.455 83 68.875 82.58 68.875 82.0625C68.875 82.0438 68.8659 82.0281 68.864 82.0094C68.8659 81.9907 68.875 81.9742 68.875 81.9545C68.875 81.437 68.455 81.017 67.9375 81.017H66.0625ZM94.1216 81.017C93.6041 81.017 93.1841 81.437 93.1841 81.9545C93.1841 81.9732 93.1932 81.9888 93.1951 82.0076C93.1941 82.0263 93.1841 82.0419 93.1841 82.0607C93.1841 82.5782 93.6041 82.9982 94.1216 82.9982H94.1875H95.9966H96.0625C96.58 82.9982 97 82.5782 97 82.0607C97 81.89 96.9424 81.7407 96.8627 81.6029C96.7239 81.2607 96.3894 81.017 95.9966 81.017H94.1216ZM93.1511 85.9333C92.7857 85.9395 92.4416 86.1611 92.296 86.5211C92.102 87.0011 92.3342 87.5465 92.8142 87.7406L94.5537 88.4437C94.669 88.4897 94.7872 88.5133 94.9034 88.5133C95.2747 88.5133 95.626 88.2912 95.7732 87.9255C95.9663 87.4455 95.735 86.8983 95.255 86.7042L93.5173 86.0011C93.3971 85.9528 93.2729 85.9313 93.1511 85.9333ZM90.421 90.1356C90.1811 90.1396 89.9437 90.2352 89.7637 90.4213C89.4037 90.7935 89.4135 91.3869 89.7856 91.7469L91.1333 93.0488C91.3161 93.2251 91.5508 93.3125 91.7852 93.3125C92.0308 93.3125 92.2752 93.2172 92.459 93.0269C92.819 92.6547 92.8092 92.0612 92.437 91.7012L91.0894 90.3993C90.9033 90.2198 90.6609 90.1316 90.421 90.1356ZM76.0179 92.3109C75.2877 92.3165 74.596 92.7487 74.2986 93.4645C74.1064 93.9276 74.1046 94.4378 74.2968 94.9C74.488 95.3631 74.849 95.725 75.3112 95.9163C75.5455 96.0138 75.7889 96.0591 76.0289 96.0591C76.7649 96.0591 77.4639 95.6237 77.7629 94.9037C78.1586 93.9493 77.7038 92.8485 76.7485 92.4519C76.5099 92.3532 76.2614 92.3091 76.0179 92.3109Z" fill="white"/>
</svg>
